<?xml version="1.0" standalone="no"?>
<!DOCTYPE svg PUBLIC "-//W3C//DTD SVG 20010904//EN"
 "http://www.w3.org/TR/2001/REC-SVG-20010904/DTD/svg10.dtd">
<svg version="1.0" xmlns="http://www.w3.org/2000/svg"
 width="1597.000000pt" height="1223.000000pt" viewBox="0 0 1597.000000 1223.000000"
 preserveAspectRatio="xMidYMid meet">

<g transform="translate(0.000000,1223.000000) scale(0.100000,-0.100000)"
fill="#000000" stroke="none">
<path d="M0 6115 l0 -6115 7985 0 7985 0 0 2755 c0 2442 -2 2755 -15 2755 -8
0 -15 9 -15 20 0 11 -4 20 -10 20 -5 0 -10 7 -10 15 0 8 -5 14 -12 12 -7 -1
-12 5 -13 15 0 9 -11 29 -25 45 -14 15 -28 35 -32 43 -4 9 -7 10 -7 3 -1 -7
-7 -10 -15 -7 -8 3 -12 12 -9 20 3 8 0 14 -7 14 -7 0 -10 6 -7 14 3 9 -4 21
-19 30 -13 9 -24 25 -24 37 0 11 -7 22 -15 25 -8 4 -12 10 -9 15 3 5 -6 13
-20 19 -22 8 -24 13 -19 46 6 33 4 36 -15 30 -15 -5 -22 -2 -27 13 -3 11 -16
21 -27 23 -12 2 -23 9 -26 17 -3 8 0 11 7 7 7 -5 9 -1 5 8 -3 9 -10 14 -14 11
-4 -3 -11 10 -15 28 -4 17 -9 35 -10 40 -1 4 -3 10 -4 15 -2 4 -6 -2 -10 -12
-7 -17 -10 -15 -30 17 -22 36 -53 48 -67 26 -4 -8 -9 -7 -15 2 -6 10 -13 10
-34 1 -25 -11 -26 -37 -2 -29 13 4 36 -21 37 -40 0 -7 -5 -13 -11 -13 -6 0 -8
7 -5 16 5 13 2 15 -14 11 -11 -3 -18 -1 -14 4 3 5 -1 9 -9 9 -8 0 -40 25 -72
55 -31 30 -62 55 -70 55 -7 0 -16 12 -19 26 -5 19 -10 23 -19 15 -8 -6 -18 -6
-27 -1 -8 5 -24 7 -35 4 -15 -4 -16 -3 -6 4 7 5 11 15 7 21 -4 6 -14 3 -26 -9
-11 -11 -28 -20 -37 -19 -15 0 -14 2 3 9 18 7 41 40 32 44 -45 23 -59 28 -72
23 -9 -4 -16 -1 -16 5 0 7 -6 6 -16 -3 -13 -10 -17 -10 -24 0 -4 8 -12 11 -16
8 -5 -3 -15 1 -21 9 -8 8 -9 15 -3 19 17 11 11 20 -16 21 -29 2 -45 15 -27 21
7 3 13 9 13 14 0 14 -38 11 -43 -3 -3 -9 -11 -6 -26 10 -12 12 -27 22 -32 22
-6 0 -8 7 -5 15 3 10 -1 18 -12 22 -9 3 -36 14 -59 24 -23 11 -45 19 -49 19
-4 0 -16 7 -26 17 -17 15 -18 15 -18 -2 0 -17 -1 -17 -18 -2 -10 10 -26 17
-35 17 -19 0 -57 34 -57 50 0 6 -9 10 -20 10 -11 0 -23 7 -26 15 -4 8 -10 13
-14 10 -5 -3 -15 2 -23 10 -9 8 -25 15 -36 15 -11 0 -26 7 -35 15 -8 8 -22 15
-31 15 -11 0 -15 5 -12 15 4 8 2 17 -3 20 -6 4 -10 -2 -10 -12 0 -14 -3 -12
-13 7 -8 16 -23 26 -40 28 -15 2 -27 8 -27 13 0 6 -5 7 -10 4 -6 -4 -16 -2
-23 3 -7 6 -23 12 -37 14 -14 2 -24 9 -23 16 2 6 -6 12 -17 12 -12 0 -25 10
-30 23 -18 42 -37 60 -56 49 -11 -6 -13 -11 -5 -16 16 -10 14 -26 -4 -26 -8 0
-19 9 -26 21 -7 15 -18 20 -34 16 -14 -2 -26 1 -29 9 -3 8 -14 14 -25 14 -14
0 -18 5 -14 20 4 17 2 19 -13 13 -17 -6 -17 -5 -6 9 11 14 10 18 -7 27 -11 6
-27 11 -36 11 -20 0 -87 45 -79 53 3 3 -7 4 -23 1 -26 -4 -29 -2 -28 23 0 15
-4 28 -10 28 -5 0 -15 4 -22 8 -6 4 -18 5 -25 2 -13 -5 -71 18 -68 26 1 2 -2
12 -5 22 -8 20 -35 23 -35 5 0 -8 -7 -5 -15 6 -8 11 -15 16 -15 10 0 -5 -3 -5
-8 1 -4 6 -19 16 -35 24 -18 10 -25 20 -22 31 4 13 -1 16 -24 15 -17 -1 -28 2
-25 7 3 4 -3 19 -14 33 -14 17 -22 21 -30 13 -8 -8 -14 -4 -22 16 -5 15 -8 32
-4 37 3 5 0 9 -5 9 -6 0 -11 -5 -11 -11 0 -7 -12 0 -26 15 -29 28 -39 32 -49
16 -3 -5 3 -10 14 -10 12 0 21 -7 21 -15 0 -8 -3 -15 -6 -15 -3 0 -12 7 -20
15 -9 8 -24 15 -36 15 -17 0 -19 4 -13 30 5 22 3 32 -9 36 -9 3 -14 9 -11 13
2 4 -20 6 -49 3 -49 -4 -54 -2 -59 19 -4 13 -1 27 6 32 7 5 2 6 -13 2 -14 -4
-27 -7 -30 -7 -47 -1 -54 15 -12 30 15 6 21 11 15 11 -7 1 -13 8 -13 17 0 14
-3 14 -15 4 -13 -11 -21 -8 -45 15 -20 19 -26 31 -19 36 8 4 5 10 -7 17 -15 8
-16 13 -5 26 18 21 3 20 -21 -1 -17 -15 -20 -15 -28 -3 -7 10 -5 18 4 25 10 8
9 14 -6 29 -16 17 -18 18 -18 3 0 -9 -7 -17 -16 -17 -12 0 -14 3 -6 13 12 14
-12 49 -42 60 -15 6 -17 4 -12 -10 6 -15 5 -16 -5 -5 -10 9 -10 15 -2 23 14
14 6 39 -10 33 -17 -6 -44 14 -32 24 6 4 12 20 13 36 3 24 1 28 -13 22 -14 -5
-16 -2 -11 18 4 16 0 30 -9 40 -19 19 -19 24 3 29 16 4 16 5 0 6 -11 1 -18 9
-18 21 0 27 -24 25 -51 -2 l-22 -23 6 23 c5 19 3 21 -9 11 -12 -10 -13 -9 -9
4 4 8 1 18 -5 22 -8 5 -5 11 7 20 17 13 17 14 -1 34 -11 12 -25 21 -33 21 -7
0 -13 7 -13 16 0 11 6 14 20 9 24 -8 28 13 4 22 -13 5 -13 7 -2 14 10 7 9 11
-5 21 -10 8 -16 23 -15 38 3 23 0 25 -34 22 -39 -4 -47 5 -26 26 8 8 8 15 -2
27 -9 11 -10 18 -1 29 8 10 9 16 1 21 -13 8 -32 -4 -25 -16 4 -5 3 -9 -2 -9
-4 0 -15 13 -25 29 -13 24 -14 30 -3 35 10 3 12 -1 9 -12 -5 -14 -3 -13 10 2
23 29 20 34 -19 29 -27 -3 -35 0 -35 13 0 10 6 14 14 11 19 -7 27 2 15 17 -5
6 -17 20 -25 31 -9 11 -12 14 -8 6 5 -11 3 -13 -10 -8 -10 4 -24 7 -32 7 -10
0 -8 6 7 21 15 15 18 24 10 32 -6 6 -11 19 -11 29 0 10 -7 18 -15 18 -17 0
-20 26 -4 36 8 4 7 9 -2 15 -11 7 -11 9 2 9 9 0 19 6 22 13 5 14 -26 16 -56 2
-24 -10 -34 2 -19 25 10 17 9 20 -13 26 -14 3 -25 12 -25 20 0 7 -5 24 -12 38
-9 22 -14 24 -26 13 -13 -10 -14 -8 -8 18 4 19 3 25 -2 16 -7 -9 -12 -10 -16
-2 -4 6 -16 11 -27 11 -11 0 -17 5 -14 10 3 6 17 10 29 10 18 0 25 7 30 31 8
41 6 61 -3 29 -6 -19 -13 -24 -32 -22 -13 1 -43 3 -66 4 -47 1 -63 28 -18 28
14 0 25 5 25 10 0 6 -11 10 -25 10 -15 0 -25 6 -25 14 0 8 -3 16 -7 19 -5 2
-3 2 4 1 7 -2 15 1 18 6 10 17 38 12 31 -6 -3 -8 -2 -12 4 -9 15 10 12 35 -5
35 -20 0 -19 17 3 29 9 6 15 11 12 11 -36 7 -80 5 -80 -3 0 -6 -6 -4 -12 5 -7
9 -25 18 -40 22 -16 4 -28 11 -28 17 0 8 5 7 15 -1 12 -10 16 -10 19 1 7 22 3
49 -6 43 -16 -10 -48 -13 -48 -3 0 5 5 9 10 9 6 0 10 5 10 10 0 6 -14 10 -30
10 -23 0 -30 4 -28 16 2 10 -3 19 -9 21 -8 3 -13 -3 -13 -14 0 -15 -2 -16 -10
-3 -6 10 -6 16 0 18 16 6 11 20 -7 25 -17 4 -17 5 0 6 21 1 23 31 2 31 -8 0
-15 5 -15 10 0 6 -6 10 -14 10 -8 0 -16 6 -19 13 -4 10 -7 10 -18 0 -7 -7 -22
-13 -33 -13 -16 0 -17 3 -8 9 10 6 9 10 -7 14 -30 8 -27 37 4 37 14 0 25 4 25
10 0 5 -10 9 -22 9 -13 -1 -30 0 -38 3 -8 3 -12 3 -7 1 14 -9 7 -31 -12 -36
-23 -6 -42 10 -34 29 3 8 -1 14 -11 14 -12 0 -16 10 -16 35 0 28 -4 35 -20 35
-11 0 -20 -4 -20 -10 0 -16 -17 -11 -24 7 -4 9 -2 21 4 27 25 25 -4 35 -107
38 l-63 2 6 36 c6 35 5 37 -26 44 -20 4 -38 1 -47 -6 -11 -9 -16 -9 -24 3 -13
20 -11 27 9 38 9 6 12 11 5 11 -6 0 -15 -4 -18 -10 -3 -5 -13 -10 -21 -10 -8
0 -12 5 -9 10 4 6 -5 10 -19 10 -16 0 -26 6 -26 15 0 17 -35 21 -45 5 -11 -18
-35 -11 -35 10 0 13 -7 20 -18 20 -11 0 -27 9 -36 19 -10 11 -25 17 -33 14
-12 -5 -12 -8 -1 -15 9 -7 8 -8 -5 -4 -10 3 -25 6 -33 6 -8 0 -14 6 -12 13 4
17 -54 75 -60 59 -5 -17 -29 -15 -36 3 -3 8 -12 15 -20 15 -8 0 -17 8 -19 18
-4 13 -5 11 -6 -5 0 -13 4 -23 11 -23 9 0 9 -3 0 -12 -9 -9 -19 -3 -42 24 -22
25 -42 37 -69 42 -34 5 -38 8 -33 31 2 15 0 25 -7 25 -6 0 -11 -7 -11 -15 0
-8 -5 -15 -10 -15 -6 0 -8 11 -4 25 5 19 2 25 -9 25 -9 0 -21 8 -26 18 -9 15
-10 15 -11 -5 0 -13 -4 -23 -10 -23 -5 0 -10 9 -10 20 0 27 -18 25 -22 -2 -4
-22 -5 -22 -18 5 -7 15 -21 27 -32 27 -10 0 -18 5 -18 10 0 6 -14 10 -31 10
-26 0 -29 3 -24 20 4 11 2 20 -4 20 -6 0 -11 -13 -11 -30 0 -16 -5 -30 -11
-30 -6 0 -8 7 -5 16 3 8 1 25 -5 36 -9 17 -13 18 -20 7 -6 -10 -9 -11 -9 -1 0
7 -15 13 -37 13 l-38 2 35 7 35 7 -31 2 c-21 1 -37 9 -47 24 -12 18 -18 20
-34 11 -14 -9 -21 -8 -31 2 -16 17 -15 27 2 21 10 -4 12 0 9 14 -5 18 -7 18
-23 4 -22 -19 -26 -19 -52 5 -17 15 -24 17 -30 8 -5 -8 -8 -3 -8 15 0 16 4 26
10 22 6 -3 10 -1 10 4 0 6 -7 11 -15 11 -8 0 -15 -4 -15 -10 0 -5 -7 -10 -15
-10 -18 0 -20 16 -2 23 8 3 6 7 -7 12 -11 5 -27 3 -37 -3 -28 -18 -34 -15 -37
14 -4 49 -20 56 -53 23 -11 -11 -24 -17 -27 -13 -4 3 -1 9 6 11 18 7 15 23 -5
23 -10 0 -25 5 -33 11 -12 8 -10 9 8 4 23 -7 62 2 62 13 0 4 -18 6 -40 4 -33
-3 -45 0 -61 19 -11 13 -28 24 -37 24 -10 0 -18 9 -20 23 -2 12 -7 22 -12 22
-5 0 -7 -7 -4 -15 7 -17 -21 -21 -31 -5 -3 6 0 10 7 10 26 0 -20 32 -51 35
-16 1 -38 8 -47 16 -13 11 -18 11 -21 2 -9 -27 -21 -11 -27 37 -6 44 -21 66
-46 68 -3 1 -22 8 -42 16 -46 20 -46 20 -51 -1 -3 -10 -5 -3 -6 15 -1 39 -24
40 -30 1 -3 -22 -4 -21 -15 10 -8 27 -17 35 -40 38 -23 3 -27 1 -22 -13 5 -12
2 -15 -10 -10 -8 3 -20 6 -26 6 -6 0 -5 6 2 15 15 18 7 31 -11 19 -21 -13 -59
-11 -59 3 0 7 7 13 15 13 8 0 15 5 15 11 0 6 -7 9 -15 6 -8 -4 -17 -2 -20 3
-4 6 2 10 11 10 13 0 15 3 7 11 -6 6 -24 12 -39 12 -15 0 -34 6 -42 13 -11 12
-11 14 2 14 9 0 16 5 16 10 0 6 -11 10 -25 10 -16 0 -25 -6 -25 -15 0 -8 -4
-15 -10 -15 -14 0 -13 13 2 29 11 11 10 14 0 18 -6 3 -9 9 -6 14 3 6 11 5 20
-2 8 -7 14 -7 14 -1 0 5 -14 15 -30 22 -17 7 -29 18 -27 24 2 6 0 19 -5 29 -7
14 -17 16 -48 11 -26 -4 -40 -3 -40 4 0 6 12 13 28 15 19 3 14 4 -15 6 -35 1
-43 -2 -44 -16 0 -15 -2 -15 -9 2 -7 18 -9 18 -15 3 -7 -17 -8 -17 -31 0 -13
9 -24 23 -24 30 0 12 -11 16 -42 13 -19 -2 -24 14 -8 24 27 17 7 33 -49 39
-67 8 -71 10 -64 37 3 12 14 19 29 19 35 0 29 17 -7 22 -22 4 -33 0 -40 -14
-8 -15 -13 -17 -25 -7 -8 6 -14 18 -14 25 0 8 -10 14 -25 14 -14 0 -25 4 -25
10 0 5 7 7 15 4 9 -4 15 0 15 10 0 9 -7 16 -15 16 -21 0 -19 30 3 31 11 0 12
2 4 6 -7 3 -20 -1 -28 -8 -19 -15 -33 1 -35 41 -2 21 -2 22 -6 4 -3 -16 -10
-20 -29 -16 -13 2 -24 11 -24 18 0 8 -7 17 -16 21 -9 3 -13 12 -9 22 3 9 -3 6
-13 -7 -13 -17 -20 -20 -29 -11 -9 9 -8 15 3 26 18 19 18 43 -1 43 -8 0 -15
-6 -15 -13 0 -8 -9 -22 -20 -32 -18 -16 -20 -17 -14 -2 3 9 -1 23 -10 32 -9 9
-16 23 -16 31 0 8 -9 14 -20 14 -15 0 -26 13 -40 45 -17 39 -23 45 -49 45 -16
0 -33 5 -36 10 -3 6 -1 10 4 10 19 0 12 22 -9 27 -11 3 -20 9 -20 14 0 5 -6 8
-12 7 -7 -2 -12 3 -10 10 1 6 -2 12 -8 12 -5 0 -10 9 -10 21 0 13 -6 20 -17
18 -50 -5 -71 2 -76 23 -4 12 -9 19 -13 15 -12 -12 -54 34 -54 59 0 15 -6 21
-17 20 -14 -1 -17 5 -15 26 1 14 -2 29 -8 33 -5 3 -10 -3 -10 -14 0 -12 -5
-21 -11 -21 -6 0 -8 7 -5 16 4 10 0 22 -10 28 -15 11 -15 14 0 28 22 23 20 30
-6 24 -13 -3 -17 -3 -11 0 20 9 15 24 -9 34 l-23 9 23 0 c30 1 28 21 -3 21
-16 0 -23 4 -19 14 3 8 -4 16 -18 20 -33 8 -45 7 -28 -4 8 -5 11 -12 7 -17 -5
-4 -11 -3 -15 3 -4 6 -14 14 -22 17 -12 4 -11 6 3 6 15 1 18 8 15 39 -3 35 -5
37 -33 34 l-30 -4 22 21 c18 17 20 24 10 46 -7 13 -20 25 -29 25 -26 0 -22 15
7 28 28 13 34 32 10 32 -8 0 -15 -4 -15 -10 0 -5 -6 -7 -14 -4 -8 3 -17 1 -21
-5 -9 -16 -25 -13 -25 4 0 9 9 15 24 15 30 0 48 21 36 40 -8 13 -10 12 -10 -2
0 -11 -8 -18 -20 -18 -23 0 -27 18 -5 26 8 4 15 16 15 27 0 16 -3 18 -12 9
-16 -16 -28 -15 -28 3 0 8 -4 15 -10 15 -5 0 -10 -4 -10 -10 0 -5 -7 -7 -15
-3 -14 5 -14 7 0 23 11 12 14 26 9 44 -6 27 -28 35 -38 14 -5 -10 -7 -10 -12
0 -4 9 -793 12 -3895 12 l-3889 0 0 -6115z m7760 6069 c0 -8 -5 -12 -10 -9 -6
4 -8 11 -5 16 9 14 15 11 15 -7z m70 -124 c0 -5 -4 -10 -10 -10 -5 0 -10 5
-10 10 0 6 5 10 10 10 6 0 10 -4 10 -10z m240 -410 c0 -5 -4 -10 -10 -10 -5 0
-10 5 -10 10 0 6 5 10 10 10 6 0 10 -4 10 -10z m238 -197 c-4 -22 -22 -20 -26
1 -2 10 3 16 13 16 10 0 15 -7 13 -17z m132 -113 c0 -5 -2 -10 -4 -10 -3 0 -8
5 -11 10 -3 6 -1 10 4 10 6 0 11 -4 11 -10z m190 -200 c0 -5 -4 -10 -10 -10
-5 0 -10 5 -10 10 0 6 5 10 10 10 6 0 10 -4 10 -10z m265 -220 c3 -5 1 -10 -4
-10 -6 0 -11 5 -11 10 0 6 2 10 4 10 3 0 8 -4 11 -10z m70 -20 c-3 -5 -13 -10
-21 -10 -8 0 -14 5 -14 10 0 6 9 10 21 10 11 0 17 -4 14 -10z m265 -114 c0 -8
-71 -12 -76 -4 -3 4 13 8 35 8 23 0 41 -2 41 -4z m-25 -46 c-3 -5 -10 -10 -16
-10 -5 0 -9 5 -9 10 0 6 7 10 16 10 8 0 12 -4 9 -10z m22 -36 c-3 -3 -12 -4
-19 -1 -8 3 -5 6 6 6 11 1 17 -2 13 -5z m126 -81 c-7 -2 -19 -2 -25 0 -7 3 -2
5 12 5 14 0 19 -2 13 -5z m177 -98 c0 -14 -2 -25 -4 -25 -2 0 -6 11 -8 25 -3
14 -1 25 3 25 5 0 9 -11 9 -25z m330 -196 c0 -5 -4 -9 -10 -9 -5 0 -10 7 -10
16 0 8 5 12 10 9 6 -3 10 -10 10 -16z m105 -99 c3 -5 1 -10 -4 -10 -6 0 -11 5
-11 10 0 6 2 10 4 10 3 0 8 -4 11 -10z m199 -114 c-6 -15 -24 -23 -24 -11 0 8
24 34 28 30 1 -1 0 -10 -4 -19z m346 -210 c0 -11 -19 -15 -25 -6 -3 5 1 10 9
10 9 0 16 -2 16 -4z m103 -3 c-7 -2 -19 -2 -25 0 -7 3 -2 5 12 5 14 0 19 -2
13 -5z m117 -73 c0 -5 -4 -10 -9 -10 -6 0 -13 5 -16 10 -3 6 1 10 9 10 9 0 16
-4 16 -10z m120 -62 c0 -10 -13 -10 -34 -2 -9 3 -16 12 -16 19 0 10 5 11 25 2
14 -7 25 -15 25 -19z m437 -184 c-3 -3 -12 -4 -19 -1 -8 3 -5 6 6 6 11 1 17
-2 13 -5z m53 -39 c10 -12 10 -15 -4 -15 -9 0 -16 7 -16 15 0 8 2 15 4 15 2 0
9 -7 16 -15z m87 -3 c7 -4 10 -17 6 -30 -6 -24 -23 -30 -23 -8 0 8 -7 17 -16
20 -8 3 -12 10 -9 16 7 12 25 13 42 2z m-42 -42 c3 -5 1 -10 -4 -10 -6 0 -11
5 -11 10 0 6 2 10 4 10 3 0 8 -4 11 -10z m215 -80 c0 -5 -6 -10 -14 -10 -8 0
-18 5 -21 10 -3 6 3 10 14 10 12 0 21 -4 21 -10z m12 -54 c3 -16 1 -23 -7 -19
-7 2 -11 13 -8 24 7 25 10 24 15 -5z m58 15 c0 -6 -4 -13 -10 -16 -5 -3 -10 1
-10 9 0 9 5 16 10 16 6 0 10 -4 10 -9z m47 -107 c-3 -3 -12 -4 -19 -1 -8 3 -5
6 6 6 11 1 17 -2 13 -5z m288 -244 c3 -6 -1 -7 -9 -4 -18 7 -21 14 -7 14 6 0
13 -4 16 -10z m319 -416 c3 -8 2 -12 -4 -9 -6 3 -10 10 -10 16 0 14 7 11 14
-7z m183 -426 c-3 -7 -5 -2 -5 12 0 14 2 19 5 13 2 -7 2 -19 0 -25z m68 -28
c3 -6 -4 -10 -17 -10 -18 0 -20 2 -8 10 19 12 18 12 25 0z m43 -106 c-9 -9
-21 -13 -28 -9 -14 9 5 25 30 25 12 0 12 -3 -2 -16z m92 -84 c0 -11 -4 -20
-10 -20 -5 0 -10 9 -10 20 0 11 5 20 10 20 6 0 10 -9 10 -20z m20 -76 c0 -8
-4 -12 -10 -9 -5 3 -10 10 -10 16 0 5 5 9 10 9 6 0 10 -7 10 -16z m250 -384
c0 -13 -11 -13 -30 0 -12 8 -11 10 8 10 12 0 22 -4 22 -10z m170 -100 c8 -5
11 -10 5 -10 -5 0 -17 5 -25 10 -8 5 -10 10 -5 10 6 0 17 -5 25 -10z m560
-360 c0 -5 -4 -10 -10 -10 -5 0 -10 5 -10 10 0 6 5 10 10 10 6 0 10 -4 10 -10z
m1370 -764 c0 -8 -4 -17 -9 -21 -12 -7 -24 12 -16 25 9 15 25 12 25 -4z m-50
-6 c0 -5 -4 -10 -10 -10 -5 0 -10 5 -10 10 0 6 5 10 10 10 6 0 10 -4 10 -10z"/>
<path d="M7976 11961 c-3 -5 1 -11 9 -15 9 -3 15 0 15 9 0 16 -16 20 -24 6z"/>
<path d="M7995 11910 c3 -5 8 -10 11 -10 2 0 4 5 4 10 0 6 -5 10 -11 10 -5 0
-7 -4 -4 -10z"/>
<path d="M8168 11643 c7 -3 16 -2 19 1 4 3 -2 6 -13 5 -11 0 -14 -3 -6 -6z"/>
<path d="M8190 11580 c0 -5 5 -10 10 -10 6 0 10 5 10 10 0 6 -4 10 -10 10 -5
0 -10 -4 -10 -10z"/>
<path d="M8298 11513 c7 -3 16 -2 19 1 4 3 -2 6 -13 5 -11 0 -14 -3 -6 -6z"/>
<path d="M8370 11516 c0 -2 7 -9 15 -16 9 -7 15 -8 15 -2 0 5 -7 12 -15 16 -8
3 -15 4 -15 2z"/>
<path d="M8385 11440 c-3 -5 -1 -10 4 -10 6 0 11 5 11 10 0 6 -2 10 -4 10 -3
0 -8 -4 -11 -10z"/>
<path d="M8815 11100 c-3 -5 -1 -10 4 -10 6 0 11 5 11 10 0 6 -2 10 -4 10 -3
0 -8 -4 -11 -10z"/>
<path d="M8840 11046 c0 -2 11 -6 25 -8 13 -3 22 -1 19 3 -5 9 -44 13 -44 5z"/>
<path d="M8890 10960 c-11 -7 2 -10 44 -10 33 0 57 3 54 6 -11 11 -83 14 -98
4z"/>
<path d="M9746 10502 c-2 -4 -1 -14 3 -21 6 -9 10 -7 14 8 5 20 -7 29 -17 13z"/>
<path d="M9751 10434 c0 -11 3 -14 6 -6 3 7 2 16 -1 19 -3 4 -6 -2 -5 -13z"/>
<path d="M10150 10201 c0 -5 5 -13 10 -16 6 -3 10 -2 10 4 0 5 -4 13 -10 16
-5 3 -10 2 -10 -4z"/>
<path d="M10823 9828 c16 -6 33 -6 37 -2 5 5 -7 10 -28 10 -37 2 -37 2 -9 -8z"/>
<path d="M11185 9680 c-3 -5 -1 -10 4 -10 6 0 11 5 11 10 0 6 -2 10 -4 10 -3
0 -8 -4 -11 -10z"/>
<path d="M11545 9490 c3 -5 8 -10 11 -10 2 0 4 5 4 10 0 6 -5 10 -11 10 -5 0
-7 -4 -4 -10z"/>
<path d="M11975 9180 c3 -5 13 -10 21 -10 8 0 14 5 14 10 0 6 -9 10 -21 10
-11 0 -17 -4 -14 -10z"/>
<path d="M12321 8754 c0 -11 3 -14 6 -6 3 7 2 16 -1 19 -3 4 -6 -2 -5 -13z"/>
<path d="M12420 8590 c0 -5 5 -10 10 -10 6 0 10 5 10 10 0 6 -4 10 -10 10 -5
0 -10 -4 -10 -10z"/>
<path d="M12470 8510 c0 -5 5 -10 11 -10 5 0 7 5 4 10 -3 6 -8 10 -11 10 -2 0
-4 -4 -4 -10z"/>
<path d="M12560 8290 c0 -6 7 -10 15 -10 8 0 15 2 15 4 0 2 -7 6 -15 10 -8 3
-15 1 -15 -4z"/>
<path d="M12810 7820 c0 -5 -7 -7 -15 -4 -8 4 -15 2 -15 -4 0 -12 24 -22 51
-22 17 0 18 3 7 20 -14 21 -28 27 -28 10z"/>
<path d="M12820 7760 c0 -5 4 -10 9 -10 5 0 18 -3 28 -6 16 -6 16 -5 -2 9 -23
19 -35 21 -35 7z"/>
<path d="M13128 7443 c7 -3 16 -2 19 1 4 3 -2 6 -13 5 -11 0 -14 -3 -6 -6z"/>
<path d="M15432 6180 c0 -14 2 -19 5 -12 2 6 2 18 0 25 -3 6 -5 1 -5 -13z"/>
</g>
</svg>
